<?xml version="1.0" encoding="utf-8"?>
<!-- Generator: Adobe Illustrator 18.0.0, SVG Export Plug-In . SVG Version: 6.00 Build 0)  -->
<!DOCTYPE svg PUBLIC "-//W3C//DTD SVG 1.1//EN" "http://www.w3.org/Graphics/SVG/1.1/DTD/svg11.dtd">
<svg version="1.1" id="Layer_1" xmlns="http://www.w3.org/2000/svg" xmlns:xlink="http://www.w3.org/1999/xlink" x="0px" y="0px"
	 viewBox="0 0 1400 792" enable-background="new 0 0 1400 792" xml:space="preserve">
<linearGradient id="SVGID_1_" gradientUnits="userSpaceOnUse" x1="700.5" y1="794" x2="700.5" y2="-3.145033e-008">
	<stop  offset="0" style="stop-color:#F9EFF8"/>
	<stop  offset="0.3711" style="stop-color:#D0E8F4"/>
	<stop  offset="1" style="stop-color:#FFFDFE"/>
</linearGradient>
<rect fill="url(#SVGID_1_)" width="1401" height="794"/>
<linearGradient id="SVGID_2_" gradientUnits="userSpaceOnUse" x1="743.4759" y1="-297.4135" x2="1813.3649" y2="-297.4135">
	<stop  offset="0" style="stop-color:#D1D5DE"/>
	<stop  offset="1" style="stop-color:#DBDBDB"/>
</linearGradient>
<path opacity="0.2" fill="url(#SVGID_2_)" d="M1709.1-133.2c-15.8-45.3-11.4-95-3.1-142.3c8.3-47.2,20.5-94.3,19.9-142.3
	c-1-78.3-38.6-155.6-99.9-204.3c-61.3-48.8-145.2-68-221.6-50.3c-48.3,11.2-93.6,36.3-143.1,38.4c-50.8,2.1-99.1-20.4-149.2-29.6
	c-118.8-21.8-246.2,38-312.6,138.8C733-423.9,726.7-288.6,775.3-178C824-67.4,923.7,17.4,1038,56.6c114.2,39.3,241.4,34.7,356-3.5
	c56.2-18.7,109.7-45.2,166.7-61.4c57-16.1,119.9-21.2,174.1,2.8l78.7-41.5C1765.4-48.3,1724.9-87.9,1709.1-133.2z"/>
<linearGradient id="SVGID_3_" gradientUnits="userSpaceOnUse" x1="386.5992" y1="862.8372" x2="1456.4882" y2="862.8372">
	<stop  offset="0" style="stop-color:#D1D5DE"/>
	<stop  offset="1" style="stop-color:#DBDBDB"/>
</linearGradient>
<path opacity="0.2" fill="url(#SVGID_3_)" d="M1352.2,1027c-15.8-45.3-11.4-95-3.1-142.3c8.3-47.2,20.5-94.3,19.9-142.3
	c-1-78.3-38.6-155.6-99.9-204.3c-61.3-48.8-145.2-68-221.6-50.3c-48.3,11.2-93.6,36.3-143.1,38.4c-50.8,2.1-99.1-20.4-149.2-29.6
	c-118.8-21.8-246.2,38-312.6,138.8c-66.5,100.9-72.8,236.1-24.1,346.7s148.4,195.4,262.6,234.6c114.2,39.3,241.4,34.7,356-3.5
	c56.2-18.7,109.7-45.2,166.7-61.4c57-16.1,119.9-21.2,174.1,2.8l78.7-41.5C1408.5,1112,1368,1072.3,1352.2,1027z"/>
<linearGradient id="SVGID_4_" gradientUnits="userSpaceOnUse" x1="-555.6056" y1="1132.0795" x2="514.2835" y2="1132.0795">
	<stop  offset="0" style="stop-color:#D1D5DE"/>
	<stop  offset="1" style="stop-color:#DBDBDB"/>
</linearGradient>
<path opacity="0.2" fill="url(#SVGID_4_)" d="M410,1296.3c-15.8-45.3-11.4-95-3.1-142.3c8.3-47.2,20.5-94.3,19.9-142.3
	c-1-78.3-38.6-155.6-99.9-204.3s-145.2-68-221.6-50.3c-48.3,11.2-93.6,36.3-143.1,38.4c-50.8,2.1-99.1-20.4-149.2-29.6
	c-118.8-21.8-246.2,38-312.6,138.8c-66.5,100.9-72.8,236.1-24.1,346.7c48.7,110.6,148.4,195.4,262.6,234.6
	c114.2,39.3,241.4,34.7,356-3.5c56.2-18.7,109.7-45.2,166.7-61.4c57-16.1,119.9-21.2,174.1,2.8l78.7-41.5
	C466.3,1381.2,425.8,1341.6,410,1296.3z"/>
<linearGradient id="SVGID_5_" gradientUnits="userSpaceOnUse" x1="-77.8813" y1="84.0218" x2="961.0853" y2="84.0218">
	<stop  offset="0" style="stop-color:#D1D5DE"/>
	<stop  offset="1" style="stop-color:#DBDBDB"/>
</linearGradient>
<path opacity="0.2" fill="url(#SVGID_5_)" d="M961.1-115.6c-8.9,52.8-30.3,103.5-63.2,145.8C833,113.7,725.5,162.2,620,155.3
	c-11.2-0.7-22.5-2-33.8-3.5c-59.3-7.9-119.7-22.4-172.8,2.3c-45.1,21-74,66.1-114.7,94.7c-53.3,37.4-125,43.5-187,23.6
	c-62-20-114.5-63.8-152.8-116.4c-13.3-18.2-25-37.5-36.6-56.8v-214.8H961.1z"/>
<path fill="#CBF7E7" d="M1493.7,399.5v532.7H727.1c2.6-22.5,7.3-44.7,14.4-66.3c23.9-73.2,75.8-137.3,141.5-176.5
	c34.7-20.7,73.4-34.6,113.8-39.1c52.7-5.9,112,1.2,152.6-32.8c24.4-20.5,36.3-51.8,51.5-79.8c43.3-79.7,125-140.7,215.5-147.1
	C1442.4,388.6,1468.7,391.9,1493.7,399.5z"/>
<linearGradient id="SVGID_6_" gradientUnits="userSpaceOnUse" x1="260.1778" y1="783.4623" x2="1278.4204" y2="783.4623">
	<stop  offset="0" style="stop-color:#D1D5DE"/>
	<stop  offset="1" style="stop-color:#DBDBDB"/>
</linearGradient>
<path fill="url(#SVGID_6_)" d="M1278.4,932.1H260.2c3.1-28.7,10.3-57.1,20.8-83.9c24.6-62.7,73.7-122.5,140.3-132
	c28.7-4.1,57,1.5,84.3,11.6c39.2,14.5,83.1,2.7,110-29.3c19-22.6,43.4-40.6,70.8-51.5c50.8-20.1,110.8-15.2,157.7,12.9
	c13.9,8.3,26.6,18.5,38.9,29.4c35,30.8,66.4,66.9,110.5,80.3c45.8,13.9,95.9-0.1,142.9,9.3c68.8,13.8,119.4,76.6,139.4,143.9
	C1276.8,925.9,1277.6,929,1278.4,932.1z"/>
<g>
	<path fill="none" stroke="#D8D8D8" stroke-miterlimit="10" d="M563.3,1084.1c-14.4-52.6-24.9-109.9-4.8-160.6
		C585,857.2,658.2,820,729.1,811.5c70.9-8.5,142.4,5.6,213.6,11s147.5,0.7,206.3-40c81.4-56.5,108.2-166.5,181.7-232.9
		c61.3-55.4,153.8-73.7,231.5-45.7"/>
	<path fill="none" stroke="#D8D8D8" stroke-miterlimit="10" d="M617.3,1084.1c-13.6-49.8-23.6-104-4.5-151.9
		c25-62.8,94.3-98,161.4-106c67.1-8.1,134.7,5.3,202.1,10.4c67.4,5.1,139.6,0.7,195.1-37.8c77-53.4,102.3-157.5,171.8-220.4
		c58-52.4,145.5-69.7,219-43.3"/>
	<path fill="none" stroke="#D8D8D8" stroke-miterlimit="10" d="M671.3,1084.1c-12.9-46.9-22.2-98-4.3-143.2
		c23.5-59.2,88.9-92.4,152.1-100c63.3-7.6,127,5,190.5,9.8s131.6,0.7,184-35.7c72.6-50.4,96.5-148.5,162-207.8
		c54.7-49.4,137.2-65.7,206.5-40.8"/>
	<path fill="none" stroke="#D8D8D8" stroke-miterlimit="10" d="M725.2,1084.1c-12.1-44.1-20.9-92.1-4-134.6
		c22.1-55.6,83.5-86.8,142.9-93.9c59.4-7.1,119.3,4.7,179,9.2c59.7,4.5,123.6,0.6,172.8-33.5c68.2-47.3,90.6-139.5,152.2-195.2
		c51.3-46.4,128.8-61.8,194-38.3"/>
	<path fill="none" stroke="#D8D8D8" stroke-miterlimit="10" d="M779.2,1084.1c-11.3-41.2-19.5-86.2-3.7-125.9
		c20.7-52,78.1-81.2,133.7-87.9c55.6-6.7,111.6,4.4,167.5,8.6c55.8,4.2,115.7,0.6,161.7-31.3c63.8-44.3,84.8-130.5,142.4-182.6
		c48-43.5,120.5-57.8,181.5-35.9"/>
</g>
<g>
	<path fill="none" stroke="#D8D8D8" stroke-miterlimit="10" d="M-93.4,302.7c-10.5,36.6,8.2,76.2,35.4,103
		c27.2,26.7,61.9,44.1,93.9,64.8c31.9,20.8,62.8,47.3,74.9,83.4c21.5,64.3-22.4,129.8-43.3,194.3c-31.7,97.6-7,211.4,62.3,287.1"/>
	<path fill="none" stroke="#D8D8D8" stroke-miterlimit="10" d="M-118.3,310.3c-10.5,36.6,8.2,76.2,35.4,103
		c27.2,26.7,61.9,44.1,93.9,64.8c31.9,20.8,62.8,47.3,74.9,83.4c21.5,64.3-22.4,129.8-43.3,194.3c-31.7,97.6-7,211.4,62.3,287.1"/>
	<path fill="none" stroke="#D8D8D8" stroke-miterlimit="10" d="M-143.2,317.9c-10.5,36.6,8.2,76.2,35.4,103
		c27.2,26.7,61.9,44.1,93.9,64.8C18,506.4,48.9,533,61,569.1c21.5,64.3-22.4,129.8-43.3,194.3C-14,861,10.7,974.7,80,1050.4"/>
	<path fill="none" stroke="#D8D8D8" stroke-miterlimit="10" d="M-168,325.4c-10.5,36.6,8.2,76.2,35.4,103
		c27.2,26.7,61.9,44.1,93.9,64.8c31.9,20.8,62.8,47.3,74.9,83.4C57.7,641,13.8,706.4-7.2,770.9c-31.7,97.6-7,211.4,62.3,287.1"/>
</g>
<g>
	<path fill="none" stroke="#D8D8D8" stroke-miterlimit="10" d="M1128.8-507.1c5.3,37.7,38.6,66.3,74.3,79.6s74.5,15,112.1,21
		c37.6,6,76.7,17.6,102.4,45.7c45.8,50,32.4,127.6,39.6,195.1C1468-63.8,1536.9,30.1,1631,71"/>
	<path fill="none" stroke="#D8D8D8" stroke-miterlimit="10" d="M1109.1-490.1c5.3,37.7,38.6,66.3,74.3,79.6
		c35.7,13.4,74.5,15,112.1,21c37.6,6,76.7,17.6,102.4,45.7c45.8,50,32.4,127.6,39.6,195.1c10.8,102,79.7,195.9,173.8,236.8"/>
	<path fill="none" stroke="#D8D8D8" stroke-miterlimit="10" d="M1089.5-473.1c5.3,37.7,38.6,66.3,74.3,79.6
		c35.7,13.4,74.5,15,112.1,21c37.6,6,76.7,17.6,102.4,45.7c45.8,50,32.4,127.6,39.6,195.1c10.8,102,79.7,195.9,173.8,236.8"/>
	<path fill="none" stroke="#D8D8D8" stroke-miterlimit="10" d="M1069.9-456c5.3,37.7,38.6,66.3,74.3,79.6
		c35.7,13.4,74.5,15,112.1,21c37.6,6,76.7,17.6,102.4,45.7c45.8,50,32.4,127.6,39.6,195.1c10.8,102,79.7,195.9,173.8,236.8"/>
</g>
<rect x="-77.9" y="-115.6" fill="none" width="1571.6" height="1047.7"/>
<path fill="#E4F0F9" d="M1198.7-115.6c-13.1,12.2-28.4,22.1-45.3,28.6c-30.6,11.8-65.1,14.1-92.9,31.6
	c-36.6,23-53.6,67.2-62.8,109.4c-9.2,42.2-13.4,86.6-34.2,124.5c-43.1,78.6-150.3,105.6-235.4,77.1c-56.6-19-103.9-57.2-142-103.9
	c-19.1-23.4-35.9-48.8-50.4-75C502.9,17.6,478.9-47.6,434-98.2c-5.4-6.1-11.3-11.9-17.5-17.4H1198.7z"/>
</svg>
